<svg version="1.0" xmlns="http://www.w3.org/2000/svg"
 width="640" height="150" viewBox="250 150 2640 355"
 preserveAspectRatio="xMidYMid meet">

<g transform="translate(100.000000,785.000000) scale(0.100000,-0.100000)"
fill="#000000" stroke="none">
<path d="M3372 6413 l3 -1688 1688 -3 1687 -2 0 1690 0 1690 -1690 0 -1690 0
2 -1687z" fill="#f9b000" stroke="none"/>
<path d="M19880 6140 c0 -425 -3 -540 -12 -540 -7 0 -47 7 -88 15 -120 24
-338 30 -455 12 -474 -73 -819 -397 -930 -874 -56 -241 -34 -547 55 -770 128
-319 385 -526 765 -616 77 -18 121 -21 305 -21 184 -1 231 2 327 22 115 23
231 57 315 94 l48 20 0 1599 0 1599 -165 0 -165 0 0 -540z m-160 -800 c25 -5
71 -17 103 -26 l57 -17 0 -807 0 -808 -77 -21 c-181 -48 -355 -50 -529 -6
-359 91 -564 388 -564 819 0 183 48 369 132 510 50 85 172 208 250 255 75 43
162 78 240 95 74 16 322 20 388 6z" fill="#767d83" stroke="none"/>
<path d="M20720 5030 l0 -1650 165 0 165 0 0 814 0 813 73 58 c158 127 294
205 427 247 60 18 97 23 190 23 103 0 121 -3 170 -26 100 -48 170 -142 207
-281 15 -56 17 -151 20 -855 l4 -793 165 0 165 0 -3 848 c-3 842 -4 847 -26
926 -37 134 -86 221 -173 308 -129 131 -286 187 -494 175 -206 -12 -411 -99
-630 -267 -44 -33 -83 -60 -87 -60 -4 0 -8 308 -8 685 l0 685 -165 0 -165 0 0
-1650z" fill="#767d83" stroke="none"/>
<path d="M25810 6664 c-110 -23 -218 -83 -292 -163 -74 -78 -118 -158 -150
-276 -19 -71 -22 -112 -26 -362 l-4 -283 -144 0 -144 0 0 -135 0 -135 145 0
145 0 0 -965 0 -965 165 0 165 0 0 965 0 965 229 0 229 0 16 43 c9 23 31 83
50 132 l33 90 -278 3 -279 2 0 233 c0 253 9 335 44 412 66 145 222 197 430
145 48 -12 89 -20 90 -18 6 6 66 239 66 253 0 16 -99 50 -193 65 -85 14 -219
11 -297 -6z" fill="#767d83" stroke="none"/>
<path d="M27181 6665 c-166 -37 -321 -155 -389 -297 -65 -134 -75 -192 -80
-505 l-4 -283 -144 0 -144 0 0 -135 0 -135 145 0 145 0 0 -965 0 -965 165 0
165 0 0 965 0 965 231 2 231 3 48 130 47 130 -279 3 -280 2 4 268 c4 243 7
273 28 337 29 92 99 165 179 189 74 22 171 20 270 -5 45 -11 84 -19 86 -17 2
1 18 61 36 131 39 148 45 135 -76 168 -103 28 -292 35 -384 14z" fill="#767d83" stroke="none"/>
<path d="M9450 4915 l0 -1535 171 0 170 0 -3 1270 c-2 699 -1 1270 2 1270 3 0
16 -17 30 -37 93 -138 382 -521 1088 -1445 l807 -1057 143 -1 142 0 0 1535 0
1535 -171 0 -170 0 3 -1245 c2 -685 0 -1245 -4 -1245 -4 0 -40 48 -80 108
-162 242 -243 350 -949 1273 -284 371 -590 772 -681 890 l-163 214 -168 3
-167 2 0 -1535z" fill="#767d83" stroke="none"/>
<path d="M13334 5626 c-259 -50 -457 -170 -603 -366 -149 -200 -227 -435 -238
-720 -12 -285 64 -568 208 -781 90 -135 245 -266 393 -334 135 -63 220 -79
411 -79 176 0 223 7 353 55 269 98 492 339 592 639 44 132 61 231 66 395 9
255 -29 444 -131 650 -129 261 -349 447 -616 520 -117 32 -324 42 -435 21z
m391 -310 c292 -112 460 -449 442 -891 -11 -283 -100 -506 -260 -650 -178
-162 -454 -198 -677 -89 -56 28 -95 57 -155 118 -162 164 -235 377 -235 687 0
222 42 403 129 548 95 161 220 254 406 304 11 3 79 5 150 3 113 -3 139 -6 200
-30z" fill="#767d83" stroke="none"/>
<path d="M15645 5629 c-82 -12 -217 -55 -295 -94 -281 -142 -480 -434 -546
-800 -23 -130 -23 -365 -1 -491 86 -479 387 -809 813 -890 118 -22 324 -15
439 15 383 101 664 433 740 876 22 132 22 348 0 480 -104 613 -578 986 -1150
904z m343 -304 c212 -67 368 -252 438 -520 22 -82 27 -130 31 -267 8 -250 -20
-398 -110 -573 -57 -111 -173 -228 -277 -279 -237 -116 -515 -71 -700 114
-154 153 -240 398 -240 684 0 392 152 695 410 814 82 38 143 50 262 51 88 1
121 -3 186 -24z" fill="#767d83" stroke="none"/>
<path d="M18015 5630 c-135 -27 -265 -102 -401 -233 -52 -49 -96 -88 -99 -85
-2 2 -11 49 -20 103 -8 55 -17 115 -20 133 l-6 32 -139 0 -140 0 0 -1100 0
-1100 170 0 170 0 0 819 0 819 83 74 c163 146 264 207 383 228 69 12 108 8
239 -26 18 -4 27 12 76 143 l57 148 -23 12 c-67 36 -232 52 -330 33z" fill="#767d83" stroke="none"/>
<path d="M23684 5625 c-358 -63 -645 -323 -768 -695 -51 -156 -61 -229 -60
-455 0 -201 2 -215 31 -325 58 -219 141 -376 272 -513 185 -193 388 -284 661
-294 155 -6 262 10 393 58 322 117 555 409 639 802 29 136 31 407 5 541 -37
184 -110 361 -202 491 -51 71 -180 198 -248 244 -75 51 -205 108 -298 131
-110 28 -313 35 -425 15z m340 -291 c292 -75 478 -364 502 -779 21 -361 -105
-683 -324 -828 -106 -71 -203 -100 -337 -100 -172 -1 -310 52 -423 162 -266
259 -331 810 -141 1200 44 89 63 117 133 185 86 86 165 134 266 160 75 20 247
20 324 0z" fill="#767d83" stroke="none"/>
<path d="M1350 3710 l0 -1010 1010 0 1010 0 0 1010 0 1010 -1010 0 -1010 0 0
-1010z" fill="#0086cd" stroke="none"/>
<path d="M4050 3715 l0 -335 335 0 335 0 0 335 0 335 -335 0 -335 0 0 -335z" fill="#e6007d" stroke="none"/>
<path d="M4730 3035 l0 -335 330 0 330 0 0 335 0 335 -330 0 -330 0 0 -335z" fill="#e6007d" stroke="none"/>
<path d="M3380 2025 l0 -675 670 0 670 0 0 675 0 675 -670 0 -670 0 0 -675z" fill="#009b9b" stroke="none"/>
</g>
</svg>
